<?xml version="1.0" encoding="utf-8"?>
<!-- Generator: Adobe Illustrator 23.0.1, SVG Export Plug-In . SVG Version: 6.00 Build 0)  -->
<svg version="1.1" id="Calque_1" xmlns="http://www.w3.org/2000/svg" xmlns:xlink="http://www.w3.org/1999/xlink" x="0px" y="0px"
	 viewBox="0 0 841.9 595.3" style="enable-background:new 0 0 841.9 595.3;" xml:space="preserve">
<style type="text/css">
	.st0{fill:#FFFFFF;}
</style>
<g>
	<g>
		<path class="st0" d="M300.4,488.8l0,17l-8.5,0l-0.1-45.1l17.7,0c2.3,0,4.3,0.4,6.1,1.1c1.7,0.7,3.2,1.7,4.3,3
			c1.1,1.2,2,2.6,2.6,4.2c0.6,1.6,0.9,3.2,0.9,4.8l0,1.5c0,1.7-0.3,3.3-0.9,4.9c-0.6,1.6-1.4,3.1-2.6,4.3c-1.1,1.3-2.6,2.3-4.3,3.1
			c-1.7,0.8-3.7,1.2-6.1,1.2L300.4,488.8z M300.4,480.7l8.3,0c1.9,0,3.4-0.5,4.5-1.6c1.1-1,1.6-2.4,1.6-4l0-0.8c0-1.6-0.6-3-1.7-4
			s-2.6-1.5-4.5-1.5l-8.3,0L300.4,480.7z"/>
		<path class="st0" d="M331.6,498l11.2,0l-0.1-29.6l-10.8,0l0-7.7l18.9,0l0.1,37.4l10.4,0l0,7.7l-29.8,0.1L331.6,498z"/>
		<path class="st0" d="M391.9,500.9c-0.9,2-2.1,3.5-3.6,4.3c-1.5,0.8-3.3,1.3-5.4,1.3c-1.9,0-3.8-0.4-5.5-1.1
			c-1.7-0.7-3.2-1.8-4.5-3.2c-1.3-1.4-2.3-3.1-3.1-5.1c-0.8-2-1.1-4.3-1.1-6.9l0-1c0-2.5,0.4-4.8,1.1-6.8c0.7-2,1.7-3.7,3-5.2
			c1.2-1.4,2.7-2.5,4.3-3.3c1.7-0.8,3.4-1.1,5.3-1.1c2.3,0,4.1,0.4,5.5,1.1c1.4,0.8,2.5,2,3.3,3.6l1.2,0l0-3.9l8.1,0l0,22.3
			c0,1.3,0.6,1.9,1.7,1.9l1.2,0l0,7.7l-5.5,0c-1.5,0-2.7-0.4-3.6-1.3c-0.9-0.9-1.4-2-1.4-3.3L391.9,500.9z M384.7,498.8
			c2.4,0,4.3-0.8,5.7-2.4c1.4-1.6,2.1-3.7,2.1-6.4l0-0.8c0-2.7-0.7-4.8-2.1-6.4c-1.4-1.6-3.3-2.3-5.7-2.3c-2.4,0-4.3,0.8-5.7,2.4
			c-1.4,1.6-2.1,3.7-2.1,6.4v0.8c0,2.7,0.7,4.8,2.1,6.4C380.4,498,382.3,498.8,384.7,498.8z"/>
		<path class="st0" d="M409.7,473.6l9.5,0l0-13.1l8.1,0l0,13.1l11.5,0l0,7.7l-11.5,0l0,14.6c0,1.3,0.6,1.9,1.7,1.9l8.6,0l0,7.7
			l-13.5,0c-1.5,0-2.7-0.5-3.6-1.4c-0.9-0.9-1.4-2.1-1.4-3.6l0-19.2l-9.5,0L409.7,473.6z"/>
		<path class="st0" d="M457.2,492.1c0,0.9,0.3,1.8,0.7,2.6c0.4,0.8,1,1.5,1.7,2.1c0.7,0.6,1.5,1,2.4,1.3c0.9,0.3,1.9,0.5,2.9,0.5
			c2,0,3.6-0.4,4.6-1.1c1.1-0.7,1.8-1.6,2.3-2.6l7,3.9c-0.4,0.8-0.9,1.7-1.6,2.5c-0.7,0.9-1.6,1.7-2.7,2.4c-1.1,0.7-2.4,1.3-4,1.8
			c-1.6,0.5-3.4,0.7-5.5,0.7c-2.4,0-4.6-0.4-6.6-1.1c-2-0.8-3.7-1.9-5.1-3.3c-1.4-1.5-2.6-3.2-3.4-5.3c-0.8-2.1-1.2-4.5-1.2-7.2
			l0-0.4c0-2.4,0.4-4.7,1.2-6.7c0.8-2,2-3.7,3.4-5.2c1.5-1.4,3.2-2.5,5.1-3.3c2-0.8,4-1.2,6.3-1.2c2.8,0,5.1,0.5,7.1,1.4
			c2,1,3.6,2.2,4.9,3.7c1.3,1.5,2.2,3.1,2.8,4.9c0.6,1.8,0.9,3.5,0.9,5.2l0,4.3L457.2,492.1z M464.9,479.9c-2.1,0-3.7,0.5-5,1.6
			c-1.3,1.1-2.1,2.3-2.5,3.6l15.1,0c-0.3-1.5-1.1-2.7-2.4-3.7S466.9,479.9,464.9,479.9z"/>
		<path class="st0" d="M489.2,473.4l9.1,0l0-6.6c0-1.8,0.6-3.4,1.9-4.7c1.2-1.3,2.8-1.9,4.6-1.9l13,0l0,7.7l-9.7,0
			c-1.2,0-1.7,0.6-1.7,1.9l0,3.5l12.6,0l0,7.7l-12.6,0l0.1,24.2l-8.1,0l-0.1-24.2l-9.1,0L489.2,473.4z"/>
		<path class="st0" d="M560.3,489.6c0,2.7-0.4,5-1.3,7.1c-0.9,2-2.1,3.8-3.7,5.2c-1.5,1.4-3.3,2.5-5.3,3.2c-2,0.7-4.1,1.1-6.3,1.1
			c-2.2,0-4.3-0.4-6.3-1.1c-2-0.7-3.8-1.8-5.3-3.2c-1.6-1.4-2.8-3.1-3.7-5.1c-0.9-2-1.4-4.4-1.4-7.1l0-0.8c0-2.6,0.4-5,1.3-7
			c0.9-2,2.1-3.8,3.7-5.2c1.5-1.4,3.3-2.5,5.3-3.2c2-0.7,4.1-1.1,6.3-1.1c2.2,0,4.3,0.4,6.3,1.1c2,0.7,3.8,1.8,5.3,3.2
			s2.8,3.1,3.7,5.2c0.9,2,1.4,4.4,1.4,7L560.3,489.6z M543.7,498.4c1.2,0,2.3-0.2,3.3-0.6c1-0.4,1.9-0.9,2.7-1.7
			c0.8-0.7,1.4-1.6,1.8-2.7c0.4-1.1,0.7-2.2,0.7-3.6l0-1.3c0-1.3-0.2-2.5-0.7-3.6c-0.5-1.1-1.1-1.9-1.8-2.7
			c-0.8-0.7-1.7-1.3-2.7-1.7c-1-0.4-2.1-0.6-3.3-0.6c-1.2,0-2.3,0.2-3.3,0.6c-1,0.4-1.9,1-2.7,1.7c-0.8,0.7-1.4,1.6-1.8,2.7
			c-0.4,1.1-0.7,2.2-0.7,3.6l0,1.3c0,1.3,0.2,2.5,0.7,3.6c0.5,1.1,1.1,1.9,1.8,2.7c0.8,0.7,1.7,1.3,2.7,1.7
			C541.4,498.2,542.5,498.4,543.7,498.4z"/>
		<path class="st0" d="M566.8,473.2l13.5,0l0,4.6l1.2,0c0.6-1.8,1.6-3.1,3.1-4.1c1.4-1,3.2-1.5,5.2-1.5c3.2,0,5.7,1,7.7,3
			c1.9,2,2.9,5,2.9,9.1l0,1.4l-8.4,0.8l0-0.9c0-1.8-0.5-3.2-1.4-4.2c-0.9-1.1-2.3-1.6-4.1-1.6c-1.8,0-3.2,0.6-4.3,1.9
			c-1,1.2-1.5,3-1.5,5.4l0,10.3l7.3,0l0,7.7l-22,0l0-7.7l6.6,0l0-16.5l-5.8,0L566.8,473.2z"/>
		<path class="st0" d="M640,505.1l-8.1,0l0-22.4c0-0.9-0.2-1.6-0.7-2c-0.5-0.5-1-0.7-1.8-0.7c-0.9,0-1.5,0.3-2,0.8
			c-0.5,0.5-0.7,1.3-0.7,2.3l0,22l-8.1,0l0-22.4c0-0.9-0.3-1.6-0.7-2c-0.5-0.4-1.1-0.7-1.8-0.7c-0.8,0-1.4,0.3-1.9,0.8
			c-0.5,0.5-0.8,1.3-0.8,2.3l0,22l-8.1,0l-0.1-32l8.1,0l0,3.1l1.2,0c0.3-1.2,0.8-2.1,1.8-2.9c0.9-0.8,2.1-1.1,3.6-1.1
			c1.4,0,2.6,0.4,3.6,1.1c1,0.8,1.7,1.7,2,2.9l1.2,0c0.3-1.2,1.1-2.1,2.2-2.9c1.1-0.8,2.5-1.1,4.1-1.1c2.1,0,3.9,0.7,5.2,2.1
			c1.3,1.4,1.9,3.4,1.9,6L640,505.1z"/>
		<path class="st0" d="M654.5,491.7c0,0.9,0.3,1.8,0.7,2.6c0.4,0.8,1,1.5,1.7,2.1c0.7,0.6,1.5,1,2.5,1.3c0.9,0.3,1.9,0.5,2.9,0.5
			c2,0,3.6-0.4,4.6-1.1c1.1-0.7,1.8-1.6,2.3-2.6l7,3.9c-0.4,0.8-0.9,1.7-1.6,2.5s-1.6,1.7-2.7,2.4c-1.1,0.7-2.4,1.3-4,1.8
			c-1.6,0.5-3.4,0.7-5.5,0.7c-2.4,0-4.6-0.4-6.6-1.1c-2-0.8-3.7-1.9-5.1-3.3c-1.4-1.5-2.6-3.2-3.4-5.3c-0.8-2.1-1.2-4.5-1.2-7.2
			v-0.4c0-2.4,0.4-4.7,1.2-6.7c0.8-2,2-3.7,3.4-5.2c1.5-1.4,3.2-2.5,5.1-3.3s4-1.2,6.3-1.2c2.7,0,5.1,0.5,7.1,1.4
			c2,1,3.6,2.2,4.9,3.7c1.3,1.5,2.2,3.1,2.8,4.9c0.6,1.8,0.9,3.5,0.9,5.2l0,4.3L654.5,491.7z M662.1,479.5c-2.1,0-3.7,0.5-5,1.6
			c-1.3,1.1-2.1,2.3-2.5,3.6l15.1,0c-0.3-1.5-1.1-2.7-2.4-3.7C665.9,480,664.2,479.5,662.1,479.5z"/>
	</g>
	<path class="st0" d="M685.7,508l31.6-0.1l0,7.3l-31.6,0.1L685.7,508z"/>
	<g>
		<path class="st0" d="M186.2,461.2l8.5,0l0.1,37l20.5,0l0,8.1l-29,0.1L186.2,461.2z"/>
		<path class="st0" d="M246.1,501.5c-0.9,2-2.1,3.5-3.6,4.3c-1.5,0.8-3.3,1.3-5.4,1.3c-1.9,0-3.8-0.4-5.5-1.1
			c-1.7-0.7-3.2-1.8-4.5-3.2s-2.3-3.1-3.1-5.2c-0.8-2-1.1-4.3-1.1-6.9l0-1c0-2.5,0.4-4.8,1.1-6.8c0.7-2,1.7-3.7,3-5.2
			c1.2-1.4,2.7-2.5,4.3-3.3c1.7-0.8,3.4-1.1,5.3-1.1c2.3,0,4.1,0.4,5.5,1.1c1.4,0.8,2.5,2,3.3,3.6l1.2,0l0-3.9l8.1,0l0,22.3
			c0,1.3,0.6,1.9,1.7,1.9l1.2,0l0,7.7l-5.5,0c-1.5,0-2.7-0.4-3.6-1.3c-0.9-0.9-1.4-2-1.4-3.3L246.1,501.5z M238.9,499.3
			c2.4,0,4.3-0.8,5.7-2.4c1.4-1.6,2.1-3.7,2.1-6.4l0-0.8c0-2.7-0.7-4.8-2.1-6.4c-1.4-1.6-3.3-2.3-5.7-2.3c-2.4,0-4.3,0.8-5.7,2.4
			c-1.4,1.6-2.1,3.7-2.1,6.4l0,0.8c0,2.7,0.7,4.8,2.1,6.4C234.7,498.6,236.6,499.3,238.9,499.3z"/>
	</g>
	<g>
		
			<ellipse transform="matrix(0.9524 -0.3047 0.3047 0.9524 -37.5879 86.9324)" class="st0" cx="259.7" cy="163.9" rx="7.3" ry="7.3"/>
		
			<ellipse transform="matrix(0.9524 -0.3047 0.3047 0.9524 -36.4342 94.0036)" class="st0" cx="282.9" cy="163.7" rx="7.3" ry="7.3"/>
		
			<ellipse transform="matrix(0.2246 -0.9744 0.9744 0.2246 78.3173 425.5554)" class="st0" cx="306.6" cy="163.6" rx="7.3" ry="7.3"/>
		
			<ellipse transform="matrix(0.9524 -0.3047 0.3047 0.9524 -56.5282 90.0225)" class="st0" cx="260.1" cy="226.1" rx="7.3" ry="7.3"/>
		<path class="st0" d="M283.3,218.7c-4,0-7.2,3.3-7.2,7.3c0,4,3.3,7.2,7.3,7.2c4,0,7.2-3.3,7.2-7.3
			C290.6,221.9,287.3,218.7,283.3,218.7z"/>
		
			<ellipse transform="matrix(0.9524 -0.3047 0.3047 0.9524 -54.2017 104.2823)" class="st0" cx="307" cy="225.8" rx="7.3" ry="7.3"/>
		<ellipse transform="matrix(0.97 -0.2433 0.2433 0.97 -62.8826 72.1331)" class="st0" cx="260.6" cy="290.6" rx="7.3" ry="7.3"/>
		
			<ellipse transform="matrix(0.8946 -0.447 0.447 0.8946 -99.9081 157.4873)" class="st0" cx="283.8" cy="290.5" rx="7.3" ry="7.3"/>
		
			<ellipse transform="matrix(0.9524 -0.3047 0.3047 0.9524 -73.845 107.4871)" class="st0" cx="307.4" cy="290.3" rx="7.3" ry="7.3"/>
		<path class="st0" d="M550.2,171.9l77.2-0.5c4.6,0,8.3-3.8,8.2-8.4c0-4.6-3.8-8.3-8.4-8.2l-77.2,0.5c-4.6,0-8.3,3.8-8.2,8.4
			C541.9,168.3,545.6,171.9,550.2,171.9z"/>
		<path class="st0" d="M628.2,279.7l-77.2,0.5c-4.6,0-8.3,3.8-8.2,8.4c0,4.6,3.8,8.3,8.4,8.2l77.2-0.5c4.6,0,8.3-3.8,8.2-8.4
			C636.5,283.4,632.8,279.7,628.2,279.7z"/>
		<path class="st0" d="M705.6,367.4c-0.1,0-0.2,0-0.3,0c-18.7,0.1-29,10.3-35.9,17.2c-0.6,0.5-1.2,1.1-1.7,1.6
			c-5.5,5.1-8,7.1-13.9,7.2c-6.9,0-9.4-2.5-15.5-8.6c-6.7-6.7-16.9-16.8-35-17.3l-0.2-41l54.7,0c0,0,0,0,0.1,0
			c2.2,0,4.3-0.9,5.8-2.4c1.6-1.6,2.4-3.7,2.4-5.9l0-61.5c0-0.1,0-0.3,0-0.4c0-0.2,0-0.4,0-0.6l0-60.4c0-0.1,0-0.1,0-0.2l0-61.5
			c0-4.6-3.7-8.3-8.3-8.3H229.2c0,0,0,0-0.1,0c-2.2,0-4.3,0.9-5.8,2.4c-1.6,1.6-2.4,3.7-2.4,5.9l0,60.4c0,0.1,0,0.1,0,0.2l0,61.5
			c0,0.1,0,0.3,0,0.4c0,0.2,0,0.4,0,0.6l0,61.5c0,4.6,3.7,8.3,8.3,8.3l53.1,0l0.2,42.1c-13.7,2.5-22,10.7-27.7,16.5
			c-0.6,0.5-1.2,1.1-1.7,1.6c-5.5,5.1-8,7.1-13.8,7.2c0,0-0.1,0-0.1,0c-6.9,0-9.4-2.5-15.5-8.6c-6.9-6.9-17.4-17.3-36.3-17.3
			c0,0,0,0-0.1,0c-4.6,0-8.2,3.7-8.2,8.3c0,4.6,3.7,8.3,8.3,8.3c12.1,0,18.5,6.3,24.6,12.4c6.9,6.9,13.5,13.4,27.3,13.4
			c12.5,0,19.3-6.1,25.1-11.5c0.6-0.5,1.2-1.1,1.8-1.6c0.1-0.1,0.2-0.2,0.3-0.3c6.1-6.1,12.4-12.4,24.4-12.5c0.1,0,0.1,0,0.2,0
			c12.1,0,18.5,6.3,24.6,12.5c6.9,6.9,13.5,13.4,27.3,13.4c12.5,0,19.3-6.1,25.1-11.5c0.6-0.5,1.2-1.1,1.8-1.6
			c0.1-0.1,0.2-0.2,0.3-0.3c6.1-6.1,12.4-12.4,24.4-12.5c0.1,0,0.1,0,0.2,0c12.1,0,18.5,6.3,24.6,12.5c6.9,6.9,13.5,13.4,27.3,13.4
			c12.6,0,19.3-6.1,25.1-11.5c0.6-0.5,1.2-1.1,1.8-1.6c0.1-0.1,0.2-0.2,0.3-0.3c6.1-6.1,12.4-12.4,24.4-12.5c0.1,0,0.1,0,0.2,0
			c12.1,0,18.5,6.3,24.6,12.5c6.9,6.9,13.5,13.4,27.3,13.4c12.6,0.1,19.3-6.1,25.1-11.5c0.6-0.5,1.2-1.1,1.8-1.6
			c0.1-0.1,0.2-0.2,0.3-0.3c6.1-6.1,12.4-12.4,24.4-12.5c0.1,0,0.1,0,0.2,0c12.1,0,18.5,6.3,24.6,12.5c6.9,6.9,13.5,13.4,27.3,13.4
			c0.1,0,0.2,0,0.2,0c12.4-0.1,19.1-6.2,24.9-11.5c0.6-0.5,1.2-1.1,1.8-1.6c0.1-0.1,0.2-0.2,0.3-0.3c6.1-6.1,12.5-12.4,24.6-12.5
			c4.7,0,8.3-3.7,8.3-8.3C713.9,371.1,710.2,367.3,705.6,367.4z M649.4,141.7l0,44H237.5l0-44L649.4,141.7z M649.4,247.2l-411.9,0
			l0-44h411.9L649.4,247.2z M237.5,264.9l411.9,0l0,44.9l-411.9,0L237.5,264.9z M565.7,384.7c-0.6,0.5-1.2,1.1-1.7,1.6
			c-5.5,5.1-8,7.1-13.8,7.2c0,0-0.1,0-0.1,0c-6.9,0-9.4-2.5-15.5-8.6c-6.9-6.9-17.4-17.3-36.3-17.3c-0.1,0-0.2,0-0.3,0
			c-18.7,0.1-29,10.3-35.9,17.2c-0.6,0.5-1.2,1.1-1.7,1.6c-5.5,5.1-8,7.1-13.8,7.2c0,0-0.1,0-0.2,0c-6.9,0-9.4-2.5-15.5-8.6
			c-6.9-6.9-17.4-17.3-36.3-17.3c-0.1,0-0.2,0-0.3,0c-18.7,0.1-29,10.3-35.9,17.2c-0.6,0.5-1.2,1.1-1.7,1.6c-5.5,5.1-8,7.1-13.8,7.2
			c0,0-0.1,0-0.2,0c-6.9,0-9.4-2.5-15.5-8.6c-5.8-5.8-14.2-14.2-28.1-16.6l-0.2-42l287.5,0l0.2,43.6
			C576.9,373.6,570.5,379.9,565.7,384.7z"/>
		<path class="st0" d="M207.9,105.6c1.3,3.4,4.4,5.4,7.8,5.4c1,0,1.9-0.2,2.9-0.5c4.3-1.6,6.5-6.4,4.9-10.7l-13.6-36.3
			c-1.6-4.3-6.4-6.5-10.7-4.9c-4.3,1.6-6.5,6.4-4.9,10.7L207.9,105.6z"/>
		<path class="st0" d="M201.7,147.6c-1.6-4.3-6.4-6.5-10.7-4.9l-36.3,13.6c-4.3,1.6-6.5,6.4-4.9,10.7c1.3,3.4,4.4,5.4,7.8,5.4
			c1,0,1.9-0.2,2.9-0.5l36.3-13.6C201.2,156.6,203.3,151.9,201.7,147.6z"/>
		<path class="st0" d="M155.6,113.4l30.9,14c1.1,0.5,2.3,0.8,3.5,0.7c3.1,0,6.1-1.8,7.5-4.9c1.9-4.2,0-9.1-4.1-11l-30.9-14
			c-4.2-1.9-9.1,0-11,4.1C149.6,106.5,151.4,111.5,155.6,113.4z"/>
	</g>
</g>
</svg>
