<?xml version="1.0" encoding="utf-8"?>
<!-- Generator: Adobe Illustrator 23.0.1, SVG Export Plug-In . SVG Version: 6.00 Build 0)  -->
<svg version="1.1" id="Calque_1" xmlns="http://www.w3.org/2000/svg" xmlns:xlink="http://www.w3.org/1999/xlink" x="0px" y="0px"
	 viewBox="0 0 841.9 595.3" style="enable-background:new 0 0 841.9 595.3;" xml:space="preserve">
<style type="text/css">
	.st0{fill:#275FA0;}
	.st1{fill:#FFCA4B;}
	.st2{fill:#88C1D0;}
</style>
<g>
	<g>
		<path d="M271.9,497.4l0,18.2l-9.1,0l0-48.3l18.9,0c2.5,0,4.6,0.4,6.5,1.2c1.8,0.8,3.4,1.9,4.6,3.2c1.2,1.3,2.1,2.8,2.8,4.5
			c0.6,1.7,0.9,3.4,0.9,5.1l0,1.7c0,1.8-0.3,3.6-0.9,5.3c-0.6,1.7-1.5,3.3-2.8,4.6c-1.2,1.4-2.7,2.5-4.6,3.3c-1.8,0.8-4,1.2-6.5,1.2
			L271.9,497.4z M271.9,488.7l8.9,0c2,0,3.6-0.6,4.8-1.7c1.2-1.1,1.8-2.5,1.8-4.3l0-0.8c0-1.7-0.6-3.2-1.8-4.3
			c-1.2-1.1-2.8-1.7-4.8-1.6l-8.9,0L271.9,488.7z"/>
		<path d="M305.3,507.3l12,0l0-31.7l-11.6,0l0-8.3l20.3,0l0,40l11.2,0l0,8.3l-31.9,0L305.3,507.3z"/>
		<path d="M369.8,510.5c-0.9,2.2-2.2,3.7-3.9,4.6c-1.7,0.9-3.6,1.3-5.8,1.4c-2.1,0-4-0.4-5.8-1.2c-1.8-0.8-3.4-1.9-4.8-3.4
			c-1.4-1.5-2.5-3.4-3.3-5.5c-0.8-2.2-1.2-4.6-1.2-7.4l0-1.1c0-2.7,0.4-5.2,1.2-7.3c0.8-2.2,1.8-4,3.2-5.5c1.3-1.5,2.9-2.7,4.7-3.5
			c1.8-0.8,3.7-1.2,5.7-1.2c2.4,0,4.4,0.4,5.9,1.2c1.5,0.8,2.7,2.1,3.6,3.9l1.2,0l0-4.1l8.7,0l0,23.9c0,1.4,0.6,2.1,1.9,2.1l1.3,0
			l0,8.3l-5.9,0c-1.6,0-2.8-0.5-3.8-1.4c-1-0.9-1.5-2.1-1.5-3.6L369.8,510.5z M362.1,508.2c2.5,0,4.6-0.8,6.1-2.5
			c1.5-1.7,2.3-4,2.3-6.9l0-0.8c0-2.9-0.8-5.2-2.3-6.9c-1.5-1.7-3.5-2.5-6.1-2.5s-4.6,0.8-6.1,2.5c-1.5,1.7-2.3,4-2.3,6.9l0,0.8
			c0,2.9,0.8,5.2,2.3,6.9C357.5,507.4,359.6,508.2,362.1,508.2z"/>
		<path d="M388.9,481.3l10.1,0l0-14.1l8.7,0l0,14.1l12.3,0l0,8.3l-12.3,0l0,15.6c0,1.4,0.6,2.1,1.9,2.1l9.2,0l0,8.3l-14.5,0
			c-1.6,0-2.8-0.5-3.8-1.5c-1-1-1.5-2.3-1.5-3.9l0-20.6l-10.1,0L388.9,481.3z"/>
		<path d="M439.8,501.2c0,1,0.3,1.9,0.7,2.8c0.4,0.9,1,1.6,1.8,2.2c0.8,0.6,1.6,1.1,2.6,1.4c1,0.3,2,0.5,3.1,0.5
			c2.2,0,3.8-0.4,5-1.1c1.1-0.8,2-1.7,2.5-2.7l7.5,4.1c-0.4,0.9-1,1.8-1.7,2.7c-0.7,0.9-1.7,1.8-2.9,2.6c-1.2,0.8-2.6,1.4-4.3,1.9
			c-1.7,0.5-3.6,0.8-5.9,0.8c-2.6,0-4.9-0.4-7-1.2c-2.1-0.8-3.9-2-5.5-3.6c-1.5-1.6-2.7-3.5-3.6-5.7c-0.9-2.3-1.3-4.8-1.3-7.7l0-0.4
			c0-2.6,0.4-5,1.3-7.2c0.9-2.2,2.1-4,3.7-5.5c1.6-1.5,3.4-2.7,5.5-3.6c2.1-0.9,4.3-1.3,6.7-1.3c2.9,0,5.5,0.5,7.6,1.5
			s3.9,2.3,5.2,3.9c1.4,1.6,2.4,3.3,3,5.2c0.6,1.9,1,3.8,1,5.6l0,4.6L439.8,501.2z M447.9,488.1c-2.2,0-4,0.6-5.4,1.7
			c-1.4,1.1-2.3,2.4-2.7,3.9l16.1,0c-0.3-1.6-1.1-2.9-2.6-4S450.2,488.1,447.9,488.1z"/>
		<path d="M474,481.2l9.7,0l0-7c0-2,0.7-3.6,2-5c1.3-1.4,3-2,5-2l13.9,0l0,8.3l-10.3,0c-1.2,0-1.9,0.7-1.9,2.1l0,3.7l13.5,0l0,8.3
			l-13.4,0l0,25.9l-8.7,0l0-25.9l-9.7,0L474,481.2z"/>
		<path d="M550,498.6c0,2.9-0.5,5.4-1.4,7.6c-1,2.2-2.3,4-3.9,5.5c-1.7,1.5-3.6,2.6-5.7,3.4c-2.1,0.8-4.4,1.2-6.7,1.2
			c-2.3,0-4.6-0.4-6.7-1.2c-2.1-0.8-4-1.9-5.7-3.4c-1.7-1.5-3-3.3-3.9-5.5c-1-2.2-1.5-4.7-1.5-7.6l0-0.8c0-2.8,0.5-5.3,1.4-7.5
			c1-2.2,2.3-4,3.9-5.6c1.7-1.5,3.5-2.7,5.7-3.5c2.1-0.8,4.4-1.2,6.7-1.2c2.3,0,4.6,0.4,6.7,1.2c2.1,0.8,4,1.9,5.7,3.4
			c1.7,1.5,3,3.4,3.9,5.6c1,2.2,1.5,4.7,1.5,7.5L550,498.6z M532.3,508c1.2,0,2.4-0.2,3.5-0.6c1.1-0.4,2.1-1,2.9-1.8
			c0.8-0.8,1.5-1.7,2-2.9c0.5-1.1,0.7-2.4,0.7-3.8l0-1.4c0-1.4-0.2-2.7-0.7-3.8c-0.5-1.1-1.1-2.1-2-2.9c-0.8-0.8-1.8-1.4-2.9-1.8
			c-1.1-0.4-2.3-0.6-3.5-0.6c-1.2,0-2.4,0.2-3.5,0.6c-1.1,0.4-2.1,1-2.9,1.8c-0.8,0.8-1.5,1.7-2,2.9c-0.5,1.1-0.7,2.4-0.7,3.8l0,1.4
			c0,1.4,0.2,2.7,0.7,3.8c0.5,1.1,1.1,2.1,2,2.9c0.8,0.8,1.8,1.4,2.9,1.8C529.8,507.8,531,508,532.3,508z"/>
		<path d="M557.1,481.1l14.5,0l0,5l1.2,0c0.6-1.9,1.7-3.3,3.3-4.4c1.5-1,3.4-1.6,5.5-1.6c3.4,0,6.1,1.1,8.2,3.2
			c2.1,2.1,3.1,5.4,3.1,9.8l0,1.5l-9,0.8l0-1c0-1.9-0.5-3.4-1.5-4.5c-1-1.1-2.4-1.7-4.3-1.7c-1.9,0-3.4,0.7-4.6,2
			c-1.1,1.3-1.7,3.2-1.6,5.7l0,11l7.9,0l0,8.3l-23.6,0l0-8.3l7,0l0-17.7l-6.2,0L557.1,481.1z"/>
		<path d="M635.3,515.2l-8.7,0l0-24c0-1-0.2-1.7-0.7-2.2c-0.5-0.5-1.1-0.7-1.9-0.7c-0.9,0-1.6,0.3-2.2,0.8c-0.5,0.6-0.8,1.4-0.8,2.5
			l0,23.6l-8.7,0l0-24c0-1-0.3-1.7-0.8-2.2c-0.5-0.5-1.2-0.7-1.9-0.7c-0.8,0-1.5,0.3-2.1,0.8c-0.6,0.6-0.8,1.4-0.8,2.5l0,23.6
			l-8.7,0l0-34.2l8.7,0l0,3.3l1.2,0c0.3-1.2,0.9-2.3,1.9-3.1c1-0.8,2.3-1.2,3.9-1.2c1.5,0,2.8,0.4,3.9,1.2c1.1,0.8,1.8,1.8,2.1,3.1
			l1.2,0c0.4-1.2,1.1-2.3,2.3-3.1c1.2-0.8,2.6-1.2,4.4-1.2c2.3,0,4.1,0.8,5.5,2.3c1.4,1.5,2.1,3.7,2.1,6.4L635.3,515.2z"/>
		<path d="M650.8,500.9c0,1,0.3,1.9,0.7,2.8c0.4,0.9,1,1.6,1.8,2.2c0.8,0.6,1.6,1.1,2.6,1.4c1,0.3,2,0.5,3.1,0.5
			c2.2,0,3.8-0.4,5-1.1c1.1-0.8,2-1.7,2.5-2.7l7.5,4.1c-0.4,0.9-1,1.8-1.7,2.7c-0.7,0.9-1.7,1.8-2.9,2.6s-2.6,1.4-4.3,1.9
			c-1.7,0.5-3.6,0.8-5.9,0.8c-2.6,0-4.9-0.4-7-1.2c-2.1-0.8-3.9-2-5.5-3.6c-1.5-1.6-2.7-3.5-3.6-5.7c-0.9-2.3-1.3-4.8-1.3-7.7l0-0.4
			c0-2.6,0.4-5,1.3-7.2c0.9-2.2,2.1-4,3.7-5.5c1.6-1.5,3.4-2.7,5.5-3.6c2.1-0.9,4.3-1.3,6.7-1.3c2.9,0,5.5,0.5,7.6,1.5
			c2.1,1,3.9,2.3,5.2,3.9c1.4,1.6,2.4,3.3,3,5.2c0.6,1.9,1,3.8,1,5.6l0,4.6L650.8,500.9z M659,487.9c-2.2,0-4,0.6-5.4,1.7
			c-1.4,1.1-2.3,2.4-2.7,3.9l16.1,0c-0.3-1.6-1.1-2.9-2.6-4C663.1,488.4,661.2,487.9,659,487.9z"/>
	</g>
	<path class="st0" d="M684.2,518.5l33.8,0l0,7.9l-33.8,0L684.2,518.5z"/>
	<g>
		<path d="M149.7,467.7l9.1,0l0,39.6l21.9,0l0,8.7l-31,0L149.7,467.7z"/>
		<path d="M213.8,511c-0.9,2.2-2.2,3.7-3.9,4.6c-1.7,0.9-3.6,1.3-5.8,1.3c-2.1,0-4-0.4-5.8-1.2c-1.8-0.8-3.4-1.9-4.8-3.4
			c-1.4-1.5-2.5-3.4-3.3-5.5c-0.8-2.2-1.2-4.6-1.2-7.4l0-1.1c0-2.7,0.4-5.1,1.2-7.3c0.8-2.2,1.8-4,3.2-5.5c1.3-1.5,2.9-2.7,4.7-3.5
			c1.8-0.8,3.7-1.2,5.7-1.2c2.4,0,4.4,0.4,5.9,1.2c1.5,0.8,2.7,2.1,3.6,3.9l1.2,0l0-4.1l8.7,0l0,23.9c0,1.4,0.6,2.1,1.9,2.1l1.3,0
			l0,8.3l-5.9,0c-1.6,0-2.8-0.5-3.8-1.4c-1-0.9-1.5-2.1-1.5-3.6L213.8,511z M206.1,508.6c2.5,0,4.6-0.8,6.1-2.5
			c1.5-1.7,2.3-4,2.3-6.9l0-0.8c0-2.9-0.8-5.2-2.3-6.9c-1.5-1.7-3.5-2.5-6.1-2.5s-4.6,0.8-6.1,2.5c-1.5,1.7-2.3,4-2.3,6.9l0,0.8
			c0,2.9,0.8,5.2,2.3,6.9C201.5,507.8,203.6,508.6,206.1,508.6z"/>
	</g>
	
		<rect x="195.4" y="250.7" transform="matrix(1 6.908377e-03 -6.908377e-03 1 1.9694 -2.9272)" class="st1" width="458.6" height="65.9"/>
	
		<rect x="195.4" y="183.7" transform="matrix(1 6.908377e-03 -6.908377e-03 1 1.5066 -2.9288)" class="st1" width="458.6" height="65.9"/>
	
		<rect x="195.4" y="118.9" transform="matrix(1 6.908377e-03 -6.908377e-03 1 1.0588 -2.9303)" class="st1" width="458.6" height="65.9"/>
	<g>
		
			<ellipse transform="matrix(0.9524 -0.3047 0.3047 0.9524 -34.8121 76.7143)" class="st0" cx="228.4" cy="149.9" rx="7.8" ry="7.8"/>
		
			<ellipse transform="matrix(0.9524 -0.3047 0.3047 0.9524 -33.5774 84.2823)" class="st0" cx="253.2" cy="149.7" rx="7.8" ry="7.8"/>
		
			<ellipse transform="matrix(0.2246 -0.9744 0.9744 0.2246 70.2282 387.3401)" class="st0" cx="278.5" cy="149.5" rx="7.8" ry="7.8"/>
		
			<ellipse transform="matrix(0.9524 -0.3047 0.3047 0.9524 -55.0826 80.0215)" class="st0" cx="228.8" cy="216.5" rx="7.8" ry="7.8"/>
		<path class="st0" d="M253.6,208.5c-4.3,0-7.7,3.5-7.7,7.8c0,4.3,3.5,7.7,7.8,7.7c4.3,0,7.7-3.5,7.7-7.8
			C261.4,212,257.9,208.5,253.6,208.5z"/>
		<ellipse transform="matrix(0.9524 -0.3047 0.3047 0.9524 -52.5928 95.2828)" class="st0" cx="279" cy="216.1" rx="7.8" ry="7.8"/>
		<ellipse transform="matrix(0.97 -0.2433 0.2433 0.97 -62.582 64.3681)" class="st0" cx="229.3" cy="285.6" rx="7.8" ry="7.8"/>
		
			<ellipse transform="matrix(0.8946 -0.447 0.447 0.8946 -100.7509 143.6938)" class="st0" cx="254.2" cy="285.4" rx="7.8" ry="7.8"/>
		
			<ellipse transform="matrix(0.9524 -0.3047 0.3047 0.9524 -73.6156 98.7127)" class="st0" cx="279.4" cy="285.2" rx="7.8" ry="7.8"/>
		<path class="st0" d="M539.3,158.5l82.6-0.6c4.9,0,8.9-4,8.8-8.9c0-4.9-4-8.9-8.9-8.8l-82.6,0.6c-4.9,0-8.9,4-8.8,8.9
			C530.4,154.6,534.4,158.5,539.3,158.5z"/>
		<path class="st0" d="M622.7,273.9l-82.6,0.6c-4.9,0-8.9,4-8.8,8.9c0,4.9,4,8.9,8.9,8.8l82.6-0.6c4.9,0,8.9-4,8.8-8.9
			C631.6,277.8,627.6,273.8,622.7,273.9z"/>
		<path d="M705.5,367.6c-0.1,0-0.2,0-0.3,0c-20,0.1-31,11.1-38.4,18.4c-0.6,0.6-1.3,1.1-1.9,1.7c-5.9,5.4-8.6,7.6-14.9,7.7
			c-7.4,0-10.1-2.7-16.6-9.2c-7.2-7.2-18.1-18-37.5-18.5l-0.2-43.9l58.5,0c0,0,0,0,0.1,0c2.3,0,4.6-1,6.2-2.6
			c1.7-1.7,2.6-3.9,2.6-6.3l0-65.9c0-0.2,0-0.3,0-0.5c0-0.2,0-0.5,0-0.7l0-64.6c0-0.1,0-0.1,0-0.2l0-65.9c0-4.9-4-8.9-8.9-8.9H195.7
			c0,0,0,0-0.1,0c-2.3,0-4.6,1-6.2,2.6c-1.7,1.7-2.6,3.9-2.6,6.3l0,64.6c0,0.1,0,0.1,0,0.2l0,65.9c0,0.2,0,0.3,0,0.5
			c0,0.2,0,0.5,0,0.7l0,65.9c0,4.9,4,8.9,8.9,8.9l56.8,0l0.2,45c-14.6,2.7-23.5,11.4-29.7,17.6c-0.6,0.6-1.2,1.1-1.9,1.7
			c-5.9,5.4-8.5,7.6-14.7,7.7c-0.1,0-0.1,0-0.2,0c-7.4,0-10.1-2.7-16.6-9.2c-7.4-7.4-18.6-18.5-38.9-18.5c0,0,0,0-0.1,0
			c-4.9,0-8.8,4-8.8,8.9c0,4.9,4,8.9,8.9,8.9c13,0,19.8,6.8,26.3,13.3c7.4,7.4,14.4,14.4,29.2,14.4c13.4,0,20.6-6.6,26.9-12.4
			c0.6-0.6,1.3-1.2,1.9-1.7c0.1-0.1,0.2-0.2,0.3-0.3c6.5-6.5,13.3-13.3,26.1-13.4c0.1,0,0.1,0,0.2,0c13,0,19.8,6.8,26.3,13.3
			c7.4,7.4,14.4,14.4,29.2,14.4c13.4,0,20.6-6.6,26.9-12.4c0.6-0.6,1.3-1.2,1.9-1.7c0.1-0.1,0.2-0.2,0.3-0.3
			c6.5-6.5,13.3-13.3,26.1-13.4c0.1,0,0.1,0,0.2,0c13,0,19.8,6.8,26.3,13.3c7.4,7.4,14.4,14.4,29.2,14.4
			c13.4,0.1,20.6-6.6,26.9-12.4c0.6-0.6,1.3-1.2,1.9-1.7c0.1-0.1,0.2-0.2,0.3-0.3c6.5-6.5,13.3-13.3,26.1-13.4c0.1,0,0.1,0,0.2,0
			c13,0,19.8,6.8,26.3,13.3c7.4,7.4,14.4,14.4,29.2,14.4c13.5,0.1,20.6-6.6,26.9-12.4c0.6-0.6,1.3-1.2,1.9-1.7
			c0.1-0.1,0.2-0.2,0.3-0.3c6.5-6.5,13.3-13.3,26.1-13.4c0.1,0,0.1,0,0.2,0c13,0,19.8,6.8,26.3,13.3c7.4,7.4,14.4,14.4,29.2,14.4
			c0.1,0,0.2,0,0.3,0c13.3-0.1,20.4-6.6,26.7-12.4c0.6-0.6,1.3-1.2,1.9-1.7c0.1-0.1,0.2-0.2,0.3-0.3c6.6-6.6,13.4-13.3,26.3-13.4
			c5,0,8.9-4,8.9-8.9C714.4,371.6,710.5,367.6,705.5,367.6z M645.4,126.2l0,47H204.6l0-47L645.4,126.2z M645.4,239.1l-440.8,0l0-47
			h440.8L645.4,239.1z M204.6,258l440.8,0l0,48.1l-440.8,0L204.6,258z M555.9,386.2c-0.6,0.6-1.2,1.1-1.9,1.7
			c-5.9,5.4-8.5,7.6-14.7,7.7c-0.1,0-0.1,0-0.2,0c-7.4,0-10.1-2.7-16.6-9.2c-7.4-7.4-18.6-18.5-38.9-18.5c-0.1,0-0.2,0-0.3,0
			c-20,0.1-31,11.1-38.4,18.4c-0.6,0.6-1.2,1.1-1.9,1.7c-5.9,5.4-8.5,7.6-14.7,7.7c-0.1,0-0.1,0-0.2,0c-7.4,0-10.1-2.7-16.6-9.2
			c-7.4-7.4-18.6-18.5-38.9-18.5c-0.1,0-0.2,0-0.3,0c-20,0.1-31,11.1-38.4,18.4c-0.6,0.6-1.2,1.1-1.9,1.7c-5.9,5.4-8.5,7.6-14.7,7.7
			c-0.1,0-0.1,0-0.2,0c-7.4,0-10.1-2.7-16.6-9.2c-6.3-6.2-15.2-15.2-30.1-17.8l-0.2-45l307.7,0l0.2,46.7
			C567.8,374.3,561,381.1,555.9,386.2z"/>
		<path class="st2" d="M172.9,87.5c1.3,3.6,4.8,5.8,8.4,5.8c1,0,2.1-0.2,3.1-0.6c4.6-1.7,6.9-6.9,5.2-11.4l-14.6-38.9
			c-1.7-4.6-6.9-6.9-11.4-5.2c-4.6,1.7-6.9,6.9-5.2,11.4L172.9,87.5z"/>
		<path class="st2" d="M166.3,132.4c-1.7-4.6-6.9-6.9-11.4-5.2L116,141.8c-4.6,1.7-6.9,6.9-5.2,11.4c1.3,3.6,4.8,5.8,8.4,5.8
			c1,0,2.1-0.2,3.1-0.6l38.9-14.6C165.7,142.1,168,137,166.3,132.4z"/>
		<path class="st2" d="M117,95.8l33,15c1.2,0.5,2.5,0.8,3.7,0.8c3.4,0,6.6-2,8-5.2c2-4.5,0-9.7-4.4-11.8l-33-15
			c-4.5-2-9.7,0-11.8,4.4C110.5,88.5,112.5,93.8,117,95.8z"/>
	</g>
</g>
</svg>
