<?xml version="1.0" encoding="utf-8"?>
<!-- Generator: Adobe Illustrator 23.0.1, SVG Export Plug-In . SVG Version: 6.00 Build 0)  -->
<svg version="1.1" id="Calque_1" xmlns="http://www.w3.org/2000/svg" xmlns:xlink="http://www.w3.org/1999/xlink" x="0px" y="0px"
	 viewBox="0 0 841.9 595.3" style="enable-background:new 0 0 841.9 595.3;" xml:space="preserve">
<style type="text/css">
	.st0{fill:#88C1D0;}
	.st1{fill:#275FA0;}
	.st2{fill:#FFCA4B;}
</style>
<g>
	<rect x="157" y="34.8" class="st0" width="525.6" height="439.3"/>
	<g>
		<path d="M271.3,533.5l0,16.9l-8.5,0l0-44.8l17.5,0c2.3,0,4.3,0.4,6,1.1c1.7,0.7,3.1,1.7,4.3,2.9c1.1,1.2,2,2.6,2.6,4.2
			c0.6,1.6,0.9,3.1,0.9,4.8l0,1.5c0,1.7-0.3,3.3-0.9,4.9c-0.6,1.6-1.4,3-2.6,4.3c-1.1,1.3-2.5,2.3-4.3,3c-1.7,0.8-3.7,1.2-6,1.2
			L271.3,533.5z M271.3,525.4l8.3,0c1.9,0,3.4-0.5,4.4-1.5c1.1-1,1.6-2.3,1.6-4l0-0.8c0-1.6-0.5-2.9-1.6-4c-1.1-1-2.6-1.5-4.5-1.5
			l-8.3,0L271.3,525.4z"/>
		<path d="M302.2,542.7l11.1,0l0-29.5l-10.8,0l0-7.7l18.8,0l0,37.1l10.4,0l0,7.7l-29.6,0L302.2,542.7z"/>
		<path d="M362.2,545.7c-0.9,2-2,3.4-3.6,4.3c-1.5,0.8-3.3,1.3-5.4,1.3c-1.9,0-3.7-0.4-5.4-1.1c-1.7-0.7-3.2-1.8-4.5-3.2
			s-2.3-3.1-3-5.1c-0.8-2-1.1-4.3-1.1-6.9l0-1c0-2.5,0.4-4.8,1.1-6.8c0.7-2,1.7-3.7,2.9-5.1c1.2-1.4,2.7-2.5,4.3-3.2
			c1.6-0.7,3.4-1.1,5.3-1.1c2.3,0,4.1,0.4,5.5,1.1c1.4,0.8,2.5,2,3.3,3.6l1.2,0l0-3.8l8.1,0l0,22.2c0,1.3,0.6,1.9,1.7,1.9l1.2,0
			l0,7.7l-5.5,0c-1.5,0-2.6-0.4-3.6-1.3c-0.9-0.9-1.4-2-1.4-3.3L362.2,545.7z M355,543.5c2.3,0,4.2-0.8,5.6-2.3
			c1.4-1.6,2.1-3.7,2.1-6.4l0-0.8c0-2.7-0.7-4.8-2.1-6.4c-1.4-1.6-3.3-2.3-5.6-2.3c-2.3,0-4.2,0.8-5.6,2.3c-1.4,1.6-2.1,3.7-2.1,6.4
			l0,0.8c0,2.7,0.7,4.8,2.1,6.4C350.8,542.8,352.6,543.5,355,543.5z"/>
		<path d="M379.9,518.5l9.4,0l0-13.1l8.1,0l0,13.1l11.5,0l0,7.7l-11.5,0l0,14.5c0,1.3,0.6,1.9,1.7,1.9l8.6,0l0,7.7l-13.4,0
			c-1.5,0-2.6-0.5-3.6-1.4c-0.9-0.9-1.4-2.1-1.4-3.6l0-19.1l-9.4,0L379.9,518.5z"/>
		<path d="M427.1,537c0,0.9,0.3,1.8,0.7,2.6c0.4,0.8,1,1.5,1.7,2c0.7,0.6,1.5,1,2.4,1.3c0.9,0.3,1.9,0.5,2.9,0.5
			c2,0,3.5-0.4,4.6-1.1c1.1-0.7,1.8-1.5,2.3-2.5l6.9,3.8c-0.4,0.8-0.9,1.7-1.6,2.5c-0.7,0.9-1.6,1.7-2.7,2.4c-1.1,0.7-2.4,1.3-4,1.8
			c-1.6,0.5-3.4,0.7-5.5,0.7c-2.4,0-4.6-0.4-6.5-1.1c-2-0.8-3.7-1.9-5.1-3.3c-1.4-1.4-2.5-3.2-3.3-5.3c-0.8-2.1-1.2-4.5-1.2-7.1
			l0-0.4c0-2.4,0.4-4.7,1.2-6.7c0.8-2,2-3.7,3.4-5.1c1.4-1.4,3.1-2.5,5.1-3.3c1.9-0.8,4-1.2,6.2-1.2c2.7,0,5.1,0.5,7,1.4
			c2,1,3.6,2.2,4.9,3.6c1.3,1.5,2.2,3.1,2.8,4.9c0.6,1.8,0.9,3.5,0.9,5.2l0,4.3L427.1,537z M434.7,524.9c-2,0-3.7,0.5-5,1.6
			c-1.3,1-2.1,2.3-2.5,3.6l15,0c-0.3-1.5-1.1-2.7-2.4-3.7C438.4,525.4,436.7,524.9,434.7,524.9z"/>
		<path d="M458.9,518.5l9,0l0-6.5c0-1.8,0.6-3.4,1.9-4.6c1.2-1.3,2.8-1.9,4.6-1.9l12.9,0l0,7.7l-9.6,0c-1.2,0-1.7,0.6-1.7,1.9l0,3.5
			l12.5,0l0,7.7l-12.5,0l0,24.1l-8.1,0l0-24.1l-9,0L458.9,518.5z"/>
		<path d="M529.5,534.7c0,2.6-0.4,5-1.3,7c-0.9,2-2.1,3.7-3.6,5.1c-1.5,1.4-3.3,2.4-5.3,3.2c-2,0.7-4.1,1.1-6.2,1.1
			c-2.2,0-4.3-0.4-6.2-1.1c-2-0.7-3.7-1.8-5.3-3.2c-1.5-1.4-2.8-3.1-3.7-5.1c-0.9-2-1.3-4.4-1.4-7l0-0.8c0-2.6,0.4-4.9,1.3-6.9
			c0.9-2,2.1-3.7,3.6-5.2c1.5-1.4,3.3-2.5,5.3-3.2c2-0.7,4.1-1.1,6.2-1.1c2.2,0,4.3,0.4,6.2,1.1c2,0.7,3.7,1.8,5.3,3.2
			c1.5,1.4,2.8,3.1,3.7,5.2c0.9,2,1.3,4.3,1.4,6.9L529.5,534.7z M513,543.4c1.2,0,2.2-0.2,3.3-0.6c1-0.4,1.9-0.9,2.7-1.7
			c0.8-0.7,1.4-1.6,1.8-2.7c0.4-1,0.7-2.2,0.7-3.6l0-1.3c0-1.3-0.2-2.5-0.7-3.6c-0.4-1-1.1-1.9-1.8-2.7c-0.8-0.7-1.7-1.3-2.7-1.7
			c-1-0.4-2.1-0.6-3.3-0.6c-1.2,0-2.2,0.2-3.3,0.6c-1,0.4-1.9,0.9-2.7,1.7c-0.8,0.7-1.4,1.6-1.8,2.7c-0.4,1-0.7,2.2-0.7,3.6l0,1.3
			c0,1.3,0.2,2.5,0.7,3.6c0.4,1,1.1,1.9,1.8,2.7c0.8,0.7,1.7,1.3,2.7,1.7C510.7,543.2,511.8,543.4,513,543.4z"/>
		<path d="M536,518.4l13.4,0l0,4.6l1.2,0c0.6-1.8,1.6-3.1,3-4.1c1.4-1,3.1-1.4,5.2-1.4c3.2,0,5.7,1,7.6,3c1.9,2,2.9,5,2.9,9.1l0,1.4
			l-8.3,0.8l0-0.9c0-1.7-0.5-3.1-1.3-4.2c-0.9-1-2.2-1.6-4-1.6c-1.8,0-3.2,0.6-4.2,1.9c-1,1.2-1.5,3-1.5,5.3l0,10.2l7.3,0l0,7.7
			l-21.9,0l0-7.7l6.5,0l0-16.4l-5.8,0L536,518.4z"/>
		<path d="M608.6,550.1l-8.1,0l0-22.3c0-0.9-0.2-1.6-0.7-2c-0.5-0.4-1-0.7-1.8-0.7c-0.9,0-1.5,0.3-2,0.8c-0.5,0.5-0.7,1.3-0.7,2.3
			l0,21.9l-8.1,0l0-22.3c0-0.9-0.2-1.6-0.7-2c-0.5-0.4-1.1-0.7-1.8-0.7c-0.8,0-1.4,0.3-1.9,0.8c-0.5,0.5-0.8,1.3-0.8,2.3l0,21.9
			l-8.1,0l0-31.8l8.1,0l0,3.1l1.2,0c0.3-1.2,0.8-2.1,1.8-2.9c0.9-0.7,2.1-1.1,3.6-1.1c1.4,0,2.6,0.4,3.6,1.1c1,0.7,1.6,1.7,2,2.8
			l1.2,0c0.3-1.2,1.1-2.1,2.1-2.9c1.1-0.7,2.4-1.1,4.1-1.1c2.1,0,3.8,0.7,5.1,2.1c1.3,1.4,1.9,3.4,1.9,5.9L608.6,550.1z"/>
		<path d="M623,536.8c0,0.9,0.3,1.8,0.7,2.6c0.4,0.8,1,1.5,1.7,2c0.7,0.6,1.5,1,2.4,1.3c0.9,0.3,1.9,0.5,2.9,0.5
			c2,0,3.5-0.4,4.6-1.1c1.1-0.7,1.8-1.5,2.3-2.5l6.9,3.8c-0.4,0.8-0.9,1.7-1.6,2.5s-1.6,1.7-2.7,2.4s-2.4,1.3-4,1.8
			c-1.6,0.5-3.4,0.7-5.5,0.7c-2.4,0-4.6-0.4-6.5-1.1c-2-0.8-3.7-1.9-5.1-3.3c-1.4-1.5-2.5-3.2-3.3-5.3c-0.8-2.1-1.2-4.5-1.2-7.1
			l0-0.4c0-2.4,0.4-4.7,1.2-6.7c0.8-2,2-3.7,3.4-5.1c1.4-1.4,3.1-2.5,5.1-3.3c1.9-0.8,4-1.2,6.2-1.2c2.7,0,5.1,0.5,7,1.4
			c2,1,3.6,2.2,4.9,3.6c1.3,1.5,2.2,3.1,2.8,4.9c0.6,1.8,0.9,3.5,0.9,5.2l0,4.3L623,536.8z M630.6,524.7c-2,0-3.7,0.5-5,1.6
			c-1.3,1-2.1,2.3-2.5,3.6l15,0c-0.3-1.5-1.1-2.7-2.4-3.7C634.4,525.2,632.7,524.7,630.6,524.7z"/>
	</g>
	<path class="st1" d="M654,553.1l31.4,0l0,7.3l-31.4,0L654,553.1z"/>
	<g>
		<path d="M157.8,505.9l8.5,0l0,36.8l20.4,0l0,8.1l-28.8,0L157.8,505.9z"/>
		<path d="M217.4,546.1c-0.9,2-2,3.4-3.6,4.3c-1.5,0.8-3.3,1.3-5.4,1.3c-1.9,0-3.7-0.4-5.4-1.1c-1.7-0.7-3.2-1.8-4.5-3.2
			c-1.3-1.4-2.3-3.1-3-5.1c-0.8-2-1.1-4.3-1.1-6.8l0-1c0-2.5,0.4-4.8,1.1-6.8c0.7-2,1.7-3.7,2.9-5.1c1.2-1.4,2.7-2.5,4.3-3.2
			c1.6-0.7,3.4-1.1,5.3-1.1c2.3,0,4.1,0.4,5.5,1.1c1.4,0.8,2.5,2,3.3,3.6l1.2,0l0-3.8l8.1,0l0,22.2c0,1.3,0.6,1.9,1.7,1.9l1.2,0
			l0,7.7l-5.5,0c-1.5,0-2.6-0.4-3.6-1.3c-0.9-0.9-1.4-2-1.4-3.3L217.4,546.1z M210.2,543.9c2.3,0,4.2-0.8,5.6-2.3
			c1.4-1.6,2.1-3.7,2.1-6.4l0-0.8c0-2.7-0.7-4.8-2.1-6.4c-1.4-1.6-3.3-2.3-5.6-2.3c-2.3,0-4.2,0.8-5.6,2.3c-1.4,1.6-2.1,3.7-2.1,6.4
			l0,0.8c0,2.7,0.7,4.8,2.1,6.4C206,543.2,207.8,543.9,210.2,543.9z"/>
	</g>
	
		<rect x="252.1" y="287.7" transform="matrix(1 6.908377e-03 -6.908377e-03 1 2.1707 -2.9397)" class="st2" width="349.1" height="50.1"/>
	
		<rect x="252.1" y="236.7" transform="matrix(1 6.908377e-03 -6.908377e-03 1 1.8184 -2.941)" class="st2" width="349.1" height="50.1"/>
	
		<rect x="252.1" y="187.3" transform="matrix(1 6.908377e-03 -6.908377e-03 1 1.4775 -2.9421)" class="st2" width="349.1" height="50.1"/>
	<g>
		<g>
			<circle class="st1" cx="277.2" cy="210.9" r="5.9"/>
		</g>
		<g>
			<circle class="st1" cx="296.1" cy="210.8" r="5.9"/>
		</g>
		<g>
			<circle class="st1" cx="315.3" cy="210.7" r="5.9"/>
		</g>
		<g>
			<circle class="st1" cx="277.5" cy="261.6" r="5.9"/>
		</g>
		<g>
			<circle class="st1" cx="296.4" cy="261.5" r="5.9"/>
		</g>
		<g>
			<circle class="st1" cx="315.7" cy="261.4" r="5.9"/>
		</g>
		<g>
			<circle class="st1" cx="277.9" cy="314.2" r="5.9"/>
		</g>
		<g>
			<circle class="st1" cx="296.8" cy="314.1" r="5.9"/>
		</g>
		<g>
			<circle class="st1" cx="316" cy="314" r="5.9"/>
		</g>
		<g>
			<path class="st1" d="M576.7,217l-62.9,0.4c-3.7,0-6.8-3-6.8-6.7c0-3.7,3-6.8,6.7-6.8l62.9-0.4c3.7,0,6.8,3,6.8,6.7
				S580.5,217,576.7,217z"/>
		</g>
		<g>
			<path class="st1" d="M577.4,318.8l-62.9,0.4c-3.7,0-6.8-3-6.8-6.7c0-3.7,3-6.8,6.7-6.8l62.9-0.4c3.7,0,6.8,3,6.8,6.7
				C584.2,315.8,581.2,318.8,577.4,318.8z"/>
		</g>
		<path class="st1" d="M640.4,376.7c-0.1,0-0.2,0-0.2,0c-15.2,0.1-23.6,8.4-29.2,14c-0.5,0.4-1,0.9-1.4,1.3
			c-4.5,4.1-6.5,5.8-11.3,5.8c-5.6,0-7.7-2-12.6-7c-5.5-5.5-13.7-13.7-28.5-14.1l-0.2-33.4l44.9,0c0,0,0,0,0,0c1.8,0,3.5-0.7,4.7-2
			c1.3-1.3,2-3,2-4.8l0-50.1c0-0.1,0-0.2,0-0.4c0-0.2,0-0.3,0-0.5l0-49.2c0-0.1,0-0.1,0-0.2l0-50.1c0-3.7-3-6.8-6.8-6.8H252.6
			c0,0,0,0,0,0c-1.8,0-3.5,0.7-4.7,2c-1.3,1.3-2,3-2,4.8l0,49.2c0,0.1,0,0.1,0,0.2l0,50.1c0,0.1,0,0.2,0,0.4c0,0.2,0,0.3,0,0.5
			l0,50.1c0,3.7,3,6.8,6.8,6.8l42.9,0l0.2,34.3c-11.1,2-17.9,8.7-22.6,13.4c-0.5,0.4-1,0.9-1.4,1.3c-4.5,4.1-6.5,5.8-11.2,5.8
			c0,0-0.1,0-0.1,0c-5.6,0-7.7-2-12.6-7c-5.6-5.6-14.1-14.1-29.6-14.1c0,0,0,0,0,0c-3.7,0-6.7,3-6.7,6.8c0,3.7,3,6.8,6.8,6.8
			c9.9,0,15,5.2,20,10.1c5.6,5.6,11,10.9,22.2,10.9c10.2,0,15.7-5,20.5-9.4c0.5-0.4,1-0.9,1.5-1.3c0.1-0.1,0.2-0.2,0.3-0.2
			c5-5,10.1-10.1,19.9-10.2c0.1,0,0.1,0,0.2,0c9.9,0,15,5.2,20,10.1c5.6,5.6,11,10.9,22.2,10.9c10.2,0,15.7-5,20.5-9.4
			c0.5-0.4,1-0.9,1.5-1.3c0.1-0.1,0.2-0.2,0.3-0.2c5-5,10.1-10.1,19.9-10.2c0.1,0,0.1,0,0.2,0c9.9,0,15,5.2,20,10.1
			c5.6,5.6,11,10.9,22.2,10.9c10.2,0,15.7-5,20.5-9.4c0.5-0.4,1-0.9,1.5-1.3c0.1-0.1,0.2-0.2,0.3-0.2c5-5,10.1-10.1,19.9-10.2
			c0.1,0,0.1,0,0.2,0c9.9,0,15,5.2,20,10.1c5.6,5.6,11,10.9,22.2,10.9c10.2,0.1,15.7-5,20.5-9.4c0.5-0.4,1-0.9,1.5-1.3
			c0.1-0.1,0.2-0.2,0.3-0.2c5-5,10.1-10.1,19.9-10.2c0.1,0,0.1,0,0.2,0c9.9,0,15,5.2,20,10.1c5.6,5.6,11,10.9,22.2,10.9
			c0.1,0,0.1,0,0.2,0c10.1-0.1,15.5-5,20.3-9.4c0.5-0.4,1-0.9,1.5-1.3c0.1-0.1,0.2-0.2,0.3-0.2c5-5,10.2-10.1,20-10.2
			c3.8,0,6.8-3,6.8-6.8C647.2,379.7,644.2,376.7,640.4,376.7z M595,278.8l-335.6,0l0-35.8H595L595,278.8z M595,192.9l0,35.8H259.4
			l0-35.8L595,192.9z M259.4,293.2l335.6,0l0,36.6l-335.6,0L259.4,293.2z M526.5,390.8c-0.5,0.4-1,0.9-1.4,1.3
			c-4.5,4.1-6.5,5.8-11.2,5.8c0,0-0.1,0-0.1,0c-5.6,0-7.7-2-12.6-7c-5.6-5.6-14.1-14.1-29.6-14.1c-0.1,0-0.2,0-0.2,0
			c-15.2,0.1-23.6,8.4-29.2,14c-0.5,0.4-1,0.9-1.4,1.3c-4.5,4.1-6.5,5.8-11.2,5.8c0,0-0.1,0-0.1,0c-5.6,0-7.7-2-12.6-7
			c-5.6-5.6-14.1-14.1-29.6-14.1c-0.1,0-0.2,0-0.2,0c-15.2,0.1-23.6,8.4-29.2,14c-0.5,0.4-1,0.9-1.4,1.3c-4.5,4.1-6.5,5.8-11.2,5.8
			c0,0-0.1,0-0.1,0c-5.6,0-7.7-2-12.6-7c-4.8-4.8-11.6-11.6-22.9-13.5l-0.2-34.2l234.3,0l0.2,35.5
			C535.6,381.8,530.4,386.9,526.5,390.8z"/>
		<g>
			<path class="st1" d="M241.3,167.8c-2.8,0-5.4-1.7-6.4-4.4l-11.1-29.6c-1.3-3.5,0.5-7.4,4-8.7c3.5-1.3,7.4,0.5,8.7,4l11.1,29.6
				c1.3,3.5-0.5,7.4-4,8.7C242.9,167.7,242.1,167.8,241.3,167.8z"/>
		</g>
		<g>
			<path class="st1" d="M194,217.9c-2.8,0-5.4-1.7-6.4-4.4c-1.3-3.5,0.5-7.4,4-8.7l29.6-11.1c3.5-1.3,7.4,0.5,8.7,4
				c1.3,3.5-0.5,7.4-4,8.7l-29.6,11.1C195.6,217.8,194.8,217.9,194,217.9z"/>
		</g>
		<g>
			<path class="st1" d="M220.3,181.8c-0.9,0-1.9-0.2-2.8-0.6l-25.1-11.4c-3.4-1.5-4.9-5.6-3.4-9c1.5-3.4,5.6-4.9,9-3.4l25.1,11.4
				c3.4,1.5,4.9,5.6,3.4,9C225.3,180.3,222.9,181.8,220.3,181.8z"/>
		</g>
	</g>
</g>
</svg>
