<?xml version="1.0" encoding="utf-8"?>
<!-- Generator: Adobe Illustrator 23.0.1, SVG Export Plug-In . SVG Version: 6.00 Build 0)  -->
<svg version="1.1" id="Calque_1" xmlns="http://www.w3.org/2000/svg" xmlns:xlink="http://www.w3.org/1999/xlink" x="0px" y="0px"
	 viewBox="0 0 841.9 595.3" style="enable-background:new 0 0 841.9 595.3;" xml:space="preserve">
<style type="text/css">
	.st0{fill:#275FA0;}
	.st1{fill:#FFCA4B;}
</style>
<g>
	<g>
		<path d="M276.6,466.3l0,16.9l-8.5,0l0-44.9l17.6,0c2.3,0,4.3,0.4,6,1.1c1.7,0.7,3.1,1.7,4.3,2.9c1.1,1.2,2,2.6,2.6,4.2
			c0.6,1.6,0.9,3.2,0.9,4.8l0,1.5c0,1.7-0.3,3.3-0.9,4.9c-0.6,1.6-1.4,3-2.6,4.3c-1.1,1.3-2.6,2.3-4.3,3.1c-1.7,0.8-3.7,1.2-6,1.2
			L276.6,466.3z M276.6,458.2l8.3,0c1.9,0,3.4-0.5,4.5-1.5c1.1-1,1.6-2.4,1.6-4l0-0.8c0-1.6-0.5-2.9-1.6-4c-1.1-1-2.6-1.5-4.5-1.5
			l-8.3,0L276.6,458.2z"/>
		<path d="M307.6,475.5l11.2,0l0-29.5l-10.8,0l0-7.7l18.9,0l0,37.2l10.4,0l0,7.7l-29.6,0L307.6,475.5z"/>
		<path d="M367.6,478.5c-0.9,2-2,3.4-3.6,4.3c-1.5,0.8-3.3,1.3-5.4,1.3c-1.9,0-3.7-0.4-5.4-1.1c-1.7-0.7-3.2-1.8-4.5-3.2
			c-1.3-1.4-2.3-3.1-3.1-5.1c-0.8-2-1.1-4.3-1.1-6.9l0-1c0-2.5,0.4-4.8,1.1-6.8c0.7-2,1.7-3.7,2.9-5.1c1.2-1.4,2.7-2.5,4.3-3.2
			c1.6-0.7,3.4-1.1,5.3-1.1c2.3,0,4.1,0.4,5.5,1.1c1.4,0.8,2.5,2,3.3,3.6l1.2,0l0-3.8l8.1,0l0,22.2c0,1.3,0.6,1.9,1.7,1.9l1.2,0
			l0,7.7l-5.5,0c-1.5,0-2.6-0.4-3.6-1.3c-0.9-0.9-1.4-2-1.4-3.3L367.6,478.5z M360.4,476.3c2.3,0,4.2-0.8,5.6-2.3
			c1.4-1.6,2.1-3.7,2.1-6.4l0-0.8c0-2.7-0.7-4.8-2.1-6.4c-1.4-1.6-3.3-2.3-5.6-2.3c-2.4,0-4.2,0.8-5.6,2.3c-1.4,1.6-2.1,3.7-2.1,6.4
			l0,0.8c0,2.7,0.7,4.8,2.1,6.4C356.2,475.6,358.1,476.3,360.4,476.3z"/>
		<path d="M385.3,451.3l9.4,0l0-13.1l8.1,0l0,13.1l11.5,0l0,7.7l-11.5,0l0,14.5c0,1.3,0.6,1.9,1.7,1.9l8.6,0l0,7.7l-13.5,0
			c-1.5,0-2.6-0.5-3.6-1.4c-0.9-0.9-1.4-2.1-1.4-3.6l0-19.1l-9.4,0L385.3,451.3z"/>
		<path d="M432.6,469.8c0,0.9,0.3,1.8,0.7,2.6c0.4,0.8,1,1.5,1.7,2.1c0.7,0.6,1.5,1,2.4,1.3c0.9,0.3,1.9,0.5,2.9,0.5
			c2,0,3.5-0.4,4.6-1.1c1.1-0.7,1.8-1.6,2.3-2.5l6.9,3.8c-0.4,0.8-0.9,1.7-1.6,2.5c-0.7,0.9-1.6,1.7-2.7,2.4c-1.1,0.7-2.4,1.3-4,1.8
			c-1.6,0.5-3.4,0.7-5.5,0.7c-2.4,0-4.6-0.4-6.5-1.1c-2-0.8-3.7-1.9-5.1-3.3c-1.4-1.5-2.5-3.2-3.3-5.3c-0.8-2.1-1.2-4.5-1.2-7.1
			l0-0.4c0-2.4,0.4-4.7,1.2-6.7c0.8-2,2-3.7,3.4-5.1c1.5-1.4,3.1-2.5,5.1-3.3c1.9-0.8,4-1.2,6.2-1.2c2.7,0,5.1,0.5,7.1,1.4
			c2,1,3.6,2.2,4.9,3.6c1.3,1.5,2.2,3.1,2.8,4.9c0.6,1.8,0.9,3.5,0.9,5.2l0,4.3L432.6,469.8z M440.2,457.7c-2.1,0-3.7,0.5-5,1.6
			c-1.3,1.1-2.1,2.3-2.5,3.6l15,0c-0.3-1.5-1.1-2.7-2.4-3.7C444,458.2,442.3,457.7,440.2,457.7z"/>
		<path d="M464.5,451.2l9,0l0-6.5c0-1.8,0.6-3.4,1.9-4.6c1.2-1.3,2.8-1.9,4.6-1.9l13,0l0,7.7l-9.6,0c-1.2,0-1.7,0.6-1.7,1.9l0,3.5
			l12.5,0l0,7.7l-12.5,0l0,24.1l-8.1,0l0-24.1l-9,0L464.5,451.2z"/>
		<path d="M535.1,467.4c0,2.7-0.4,5-1.3,7c-0.9,2-2.1,3.7-3.7,5.1c-1.5,1.4-3.3,2.5-5.3,3.2c-2,0.7-4.1,1.1-6.3,1.1
			c-2.2,0-4.3-0.4-6.3-1.1c-2-0.7-3.8-1.8-5.3-3.2c-1.5-1.4-2.8-3.1-3.7-5.1c-0.9-2-1.4-4.4-1.4-7l0-0.8c0-2.6,0.4-4.9,1.3-7
			c0.9-2,2.1-3.8,3.7-5.2c1.5-1.4,3.3-2.5,5.3-3.2c2-0.7,4.1-1.1,6.3-1.1c2.2,0,4.3,0.4,6.3,1.1c2,0.7,3.8,1.8,5.3,3.2
			s2.8,3.1,3.7,5.2c0.9,2,1.4,4.3,1.4,7L535.1,467.4z M518.6,476.2c1.2,0,2.2-0.2,3.3-0.6c1-0.4,1.9-0.9,2.7-1.7
			c0.8-0.7,1.4-1.6,1.8-2.7c0.4-1,0.7-2.2,0.7-3.6l0-1.3c0-1.3-0.2-2.5-0.7-3.6c-0.4-1-1.1-1.9-1.8-2.7c-0.8-0.7-1.7-1.3-2.7-1.7
			c-1-0.4-2.1-0.6-3.3-0.6c-1.2,0-2.2,0.2-3.3,0.6c-1,0.4-1.9,0.9-2.7,1.7c-0.8,0.7-1.4,1.6-1.8,2.7c-0.4,1-0.7,2.2-0.7,3.6l0,1.3
			c0,1.3,0.2,2.5,0.7,3.6c0.4,1,1.1,1.9,1.8,2.7c0.8,0.7,1.7,1.3,2.7,1.7C516.3,476,517.4,476.2,518.6,476.2z"/>
		<path d="M541.7,451.1l13.5,0l0,4.6l1.2,0c0.6-1.8,1.6-3.1,3-4.1c1.4-1,3.2-1.4,5.2-1.4c3.2,0,5.7,1,7.6,3c1.9,2,2.9,5,2.9,9.1
			l0,1.4l-8.3,0.8l0-0.9c0-1.8-0.5-3.2-1.4-4.2c-0.9-1-2.2-1.6-4-1.6c-1.8,0-3.2,0.6-4.2,1.9c-1,1.2-1.5,3-1.5,5.3l0,10.3l7.3,0
			l0,7.7l-21.9,0l0-7.7l6.5,0l0-16.4l-5.8,0L541.7,451.1z"/>
		<path d="M614.4,482.9l-8.1,0l0-22.3c0-0.9-0.2-1.6-0.7-2c-0.5-0.4-1-0.7-1.8-0.7c-0.9,0-1.5,0.3-2,0.8c-0.5,0.5-0.7,1.3-0.7,2.3
			l0,21.9l-8.1,0l0-22.3c0-0.9-0.2-1.6-0.7-2c-0.5-0.4-1.1-0.7-1.8-0.7c-0.8,0-1.4,0.3-1.9,0.8c-0.5,0.5-0.8,1.3-0.8,2.3l0,21.9
			l-8.1,0l0-31.8l8.1,0l0,3.1l1.2,0c0.3-1.2,0.8-2.1,1.8-2.9c0.9-0.7,2.1-1.1,3.6-1.1c1.4,0,2.6,0.4,3.6,1.1c1,0.7,1.6,1.7,2,2.9
			l1.2,0c0.3-1.2,1.1-2.1,2.1-2.9c1.1-0.7,2.4-1.1,4.1-1.1c2.1,0,3.8,0.7,5.1,2.1c1.3,1.4,1.9,3.4,1.9,5.9L614.4,482.9z"/>
		<path d="M628.8,469.6c0,0.9,0.3,1.8,0.7,2.6c0.4,0.8,1,1.5,1.7,2.1c0.7,0.6,1.5,1,2.4,1.3c0.9,0.3,1.9,0.5,2.9,0.5
			c2,0,3.5-0.4,4.6-1.1c1.1-0.7,1.8-1.6,2.3-2.5l6.9,3.8c-0.4,0.8-0.9,1.7-1.6,2.5c-0.7,0.9-1.6,1.7-2.7,2.4c-1.1,0.7-2.4,1.3-4,1.8
			c-1.6,0.5-3.4,0.7-5.5,0.7c-2.4,0-4.6-0.4-6.5-1.1c-2-0.8-3.7-1.9-5.1-3.3c-1.4-1.5-2.5-3.2-3.3-5.3c-0.8-2.1-1.2-4.5-1.2-7.1
			l0-0.4c0-2.4,0.4-4.7,1.2-6.7c0.8-2,2-3.7,3.4-5.1c1.5-1.4,3.1-2.5,5.1-3.3c1.9-0.8,4-1.2,6.3-1.2c2.7,0,5.1,0.5,7.1,1.4
			c2,1,3.6,2.2,4.9,3.6c1.3,1.5,2.2,3.1,2.8,4.9c0.6,1.8,0.9,3.5,0.9,5.2l0,4.3L628.8,469.6z M636.4,457.5c-2.1,0-3.7,0.5-5,1.6
			c-1.3,1-2.1,2.3-2.5,3.6l15,0c-0.3-1.5-1.1-2.7-2.4-3.7C640.2,458,638.5,457.5,636.4,457.5z"/>
	</g>
	<path class="st0" d="M659.9,485.9l31.4,0l0,7.3l-31.4,0L659.9,485.9z"/>
	<g>
		<path d="M163,438.7l8.5,0l0,36.8l20.4,0l0,8.1l-28.9,0L163,438.7z"/>
		<path d="M222.6,478.9c-0.9,2-2,3.4-3.6,4.3c-1.5,0.8-3.3,1.3-5.4,1.3c-1.9,0-3.7-0.4-5.4-1.1c-1.7-0.7-3.2-1.8-4.5-3.2
			c-1.3-1.4-2.3-3.1-3.1-5.1c-0.8-2-1.1-4.3-1.1-6.9l0-1c0-2.5,0.4-4.8,1.1-6.8c0.7-2,1.7-3.7,2.9-5.1c1.2-1.4,2.7-2.5,4.3-3.2
			c1.6-0.7,3.4-1.1,5.3-1.1c2.3,0,4.1,0.4,5.5,1.1c1.4,0.8,2.5,2,3.3,3.6l1.2,0l0-3.8l8.1,0l0,22.2c0,1.3,0.6,1.9,1.7,1.9l1.2,0
			l0,7.7l-5.5,0c-1.5,0-2.6-0.4-3.6-1.3c-0.9-0.9-1.4-2-1.4-3.3L222.6,478.9z M215.4,476.7c2.3,0,4.2-0.8,5.6-2.3
			c1.4-1.6,2.1-3.7,2.1-6.4l0-0.8c0-2.7-0.7-4.8-2.1-6.4c-1.4-1.6-3.3-2.3-5.6-2.3c-2.4,0-4.2,0.8-5.6,2.3c-1.4,1.6-2.1,3.7-2.1,6.4
			l0,0.8c0,2.7,0.7,4.8,2.1,6.4C211.2,476,213,476.7,215.4,476.7z"/>
	</g>
	
		<rect x="205.5" y="236.9" transform="matrix(1 6.908377e-03 -6.908377e-03 1 1.8584 -2.8855)" class="st1" width="426.3" height="61.2"/>
	
		<rect x="205.5" y="174.7" transform="matrix(1 6.908377e-03 -6.908377e-03 1 1.4281 -2.887)" class="st1" width="426.3" height="61.2"/>
	
		<rect x="205.5" y="114.4" transform="matrix(1 6.908377e-03 -6.908377e-03 1 1.0118 -2.8884)" class="st1" width="426.3" height="61.2"/>
	<g>
		
			<ellipse transform="matrix(0.9524 -0.3047 0.3047 0.9524 -32.4213 78.7534)" class="st0" cx="236.1" cy="143.2" rx="7.2" ry="7.2"/>
		
			<ellipse transform="matrix(0.9524 -0.3047 0.3047 0.9524 -31.2735 85.7886)" class="st0" cx="259.2" cy="143.1" rx="7.2" ry="7.2"/>
		<ellipse transform="matrix(0.2246 -0.9744 0.9744 0.2246 79.93 386.3018)" class="st0" cx="282.7" cy="142.9" rx="7.2" ry="7.2"/>
		
			<ellipse transform="matrix(0.9524 -0.3047 0.3047 0.9524 -51.2649 81.8278)" class="st0" cx="236.5" cy="205.2" rx="7.2" ry="7.2"/>
		<path class="st0" d="M259.6,197.8c-4,0-7.2,3.3-7.2,7.3c0,4,3.3,7.2,7.3,7.2c4,0,7.2-3.3,7.2-7.3
			C266.8,201,263.6,197.7,259.6,197.8z"/>
		
			<ellipse transform="matrix(0.9524 -0.3047 0.3047 0.9524 -48.9503 96.0147)" class="st0" cx="283.1" cy="204.8" rx="7.2" ry="7.2"/>
		<ellipse transform="matrix(0.97 -0.2433 0.2433 0.97 -58.4129 65.7458)" class="st0" cx="237" cy="269.4" rx="7.2" ry="7.2"/>
		
			<ellipse transform="matrix(0.8946 -0.447 0.447 0.8946 -92.8966 144.6303)" class="st0" cx="260.1" cy="269.2" rx="7.2" ry="7.2"/>
		<ellipse transform="matrix(0.9524 -0.3047 0.3047 0.9524 -68.4932 99.2031)" class="st0" cx="283.6" cy="269" rx="7.2" ry="7.2"/>
		<path class="st0" d="M525.1,151.2l76.8-0.5c4.6,0,8.2-3.8,8.2-8.3c0-4.6-3.8-8.2-8.3-8.2l-76.8,0.5c-4.6,0-8.2,3.8-8.2,8.3
			C516.8,147.6,520.6,151.3,525.1,151.2z"/>
		<path class="st0" d="M602.7,258.5l-76.8,0.5c-4.6,0-8.2,3.8-8.2,8.3c0,4.6,3.8,8.2,8.3,8.2l76.8-0.5c4.6,0,8.2-3.8,8.2-8.3
			C611,262.1,607.2,258.5,602.7,258.5z"/>
		<path class="st0" d="M679.7,345.7c-0.1,0-0.2,0-0.3,0c-18.6,0.1-28.8,10.3-35.7,17.1c-0.6,0.5-1.2,1.1-1.7,1.6
			c-5.5,5.1-8,7-13.8,7.1c-6.9,0-9.4-2.5-15.4-8.5c-6.7-6.7-16.8-16.7-34.9-17.2l-0.2-40.8l54.4,0c0,0,0,0,0.1,0
			c2.2,0,4.2-0.9,5.8-2.4c1.6-1.5,2.4-3.7,2.4-5.8l0-61.2c0-0.1,0-0.3,0-0.4c0-0.2,0-0.4,0-0.6l0-60.1c0-0.1,0-0.1,0-0.2l0-61.2
			c0-4.6-3.7-8.3-8.3-8.3H205.7c0,0,0,0-0.1,0c-2.2,0-4.2,0.9-5.8,2.4c-1.6,1.5-2.4,3.7-2.4,5.8l0,60.1c0,0.1,0,0.1,0,0.2l0,61.2
			c0,0.1,0,0.3,0,0.4c0,0.2,0,0.4,0,0.6l0,61.2c0,4.6,3.7,8.3,8.3,8.3l52.8,0l0.2,41.9c-13.6,2.5-21.8,10.6-27.6,16.4
			c-0.6,0.5-1.2,1.1-1.7,1.6c-5.5,5-7.9,7.1-13.7,7.1c0,0-0.1,0-0.1,0c-6.9,0-9.4-2.5-15.4-8.5c-6.9-6.9-17.3-17.2-36.2-17.2
			c0,0,0,0-0.1,0c-4.5,0-8.2,3.7-8.2,8.3c0,4.6,3.7,8.3,8.3,8.3c12.1,0,18.4,6.3,24.5,12.4c6.9,6.9,13.4,13.4,27.1,13.4
			c12.5,0,19.2-6.1,25-11.5c0.6-0.5,1.2-1.1,1.8-1.6c0.1-0.1,0.2-0.2,0.3-0.3c6.1-6.1,12.3-12.3,24.2-12.4c0.1,0,0.1,0,0.2,0
			c12.1,0,18.4,6.3,24.5,12.4c6.9,6.9,13.4,13.4,27.1,13.4c12.5,0,19.2-6.1,25-11.5c0.6-0.5,1.2-1.1,1.8-1.6
			c0.1-0.1,0.2-0.2,0.3-0.3c6.1-6.1,12.3-12.3,24.2-12.4c0.1,0,0.1,0,0.2,0c12.1,0,18.4,6.3,24.5,12.4c6.9,6.9,13.4,13.4,27.1,13.4
			c12.5,0,19.2-6.1,25-11.5c0.6-0.5,1.2-1.1,1.8-1.6c0.1-0.1,0.2-0.2,0.3-0.3c6.1-6.1,12.3-12.3,24.2-12.4c0.1,0,0.1,0,0.2,0
			c12,0,18.4,6.3,24.5,12.4c6.9,6.9,13.4,13.4,27.1,13.4c12.5,0.1,19.2-6.1,25-11.5c0.6-0.5,1.2-1.1,1.8-1.6
			c0.1-0.1,0.2-0.2,0.3-0.3c6.1-6.1,12.3-12.3,24.2-12.4c0.1,0,0.1,0,0.2,0c12,0,18.4,6.3,24.5,12.4c6.9,6.9,13.4,13.4,27.1,13.4
			c0.1,0,0.2,0,0.2,0c12.4-0.1,19-6.1,24.8-11.5c0.6-0.5,1.2-1.1,1.8-1.6c0.1-0.1,0.2-0.2,0.3-0.3c6.1-6.1,12.4-12.4,24.4-12.4
			c4.7,0,8.3-3.7,8.3-8.3C687.9,349.4,684.2,345.7,679.7,345.7z M623.8,121.2l0,43.7H214l0-43.7L623.8,121.2z M623.8,226.1l-409.8,0
			l0-43.7h409.8L623.8,226.1z M214,243.7l409.8,0l0,44.7l-409.8,0L214,243.7z M540.6,362.9c-0.6,0.5-1.2,1.1-1.7,1.6
			c-5.5,5-7.9,7.1-13.7,7.1c0,0-0.1,0-0.1,0c-6.9,0-9.4-2.5-15.4-8.5c-6.9-6.9-17.3-17.2-36.2-17.2c-0.1,0-0.2,0-0.3,0
			c-18.6,0.1-28.8,10.3-35.7,17.1c-0.6,0.5-1.2,1.1-1.7,1.6c-5.5,5-7.9,7.1-13.7,7.1c0,0-0.1,0-0.1,0c-6.9,0-9.4-2.5-15.4-8.5
			c-6.9-6.9-17.3-17.2-36.2-17.2c-0.1,0-0.2,0-0.3,0c-18.6,0.1-28.8,10.3-35.7,17.1c-0.6,0.5-1.2,1.1-1.7,1.6
			c-5.5,5-7.9,7.1-13.7,7.1c0,0-0.1,0-0.1,0c-6.9,0-9.4-2.5-15.4-8.5c-5.8-5.8-14.1-14.1-28-16.5L275,305l286.1,0l0.2,43.4
			C551.7,351.8,545.3,358.2,540.6,362.9z"/>
		<path class="st0" d="M184.5,85.2c1.3,3.3,4.4,5.4,7.8,5.4c0.9,0,1.9-0.2,2.8-0.5c4.3-1.6,6.4-6.4,4.8-10.6l-13.6-36.1
			c-1.6-4.3-6.4-6.4-10.6-4.8c-4.3,1.6-6.4,6.4-4.8,10.6L184.5,85.2z"/>
		<path class="st0" d="M178.4,127c-1.6-4.3-6.4-6.4-10.6-4.8l-36.1,13.6c-4.3,1.6-6.4,6.4-4.8,10.6c1.3,3.3,4.4,5.4,7.8,5.4
			c0.9,0,1.9-0.2,2.8-0.5l36.1-13.6C177.8,136,180,131.3,178.4,127z"/>
		<path class="st0" d="M132.5,93l30.7,13.9c1.1,0.5,2.3,0.7,3.5,0.7c3.1,0,6.1-1.8,7.5-4.9c1.9-4.2,0-9.1-4.1-10.9l-30.7-13.9
			c-4.2-1.9-9.1,0-10.9,4.1C126.5,86.2,128.4,91.1,132.5,93z"/>
	</g>
</g>
</svg>
